<svg xmlns="http://www.w3.org/2000/svg" viewBox="0 0 1200 360" role="img" aria-labelledby="title desc">
  <title id="title">ZeroToHero: from prompt chaos to verified progress</title>
  <desc id="desc">Several uncertain task paths enter a bounded evidence gate and leave as one verified result.</desc>
  <defs>
    <linearGradient id="background" x1="0" y1="0" x2="1" y2="1">
      <stop offset="0" stop-color="#090d1a"/>
      <stop offset="1" stop-color="#111a35"/>
    </linearGradient>
    <linearGradient id="beam" x1="0" y1="0" x2="1" y2="0">
      <stop offset="0" stop-color="#7c3aed"/>
      <stop offset="0.52" stop-color="#22d3ee"/>
      <stop offset="1" stop-color="#34d399"/>
    </linearGradient>
    <filter id="glow" x="-30%" y="-30%" width="160%" height="160%">
      <feGaussianBlur stdDeviation="7" result="blur"/>
      <feMerge><feMergeNode in="blur"/><feMergeNode in="SourceGraphic"/></feMerge>
    </filter>
    <pattern id="grid" width="32" height="32" patternUnits="userSpaceOnUse">
      <path d="M32 0H0V32" fill="none" stroke="#94a3b8" stroke-opacity=".07"/>
    </pattern>
  </defs>
  <rect width="1200" height="360" rx="28" fill="url(#background)"/>
  <rect width="1200" height="360" rx="28" fill="url(#grid)"/>

  <g fill="none" stroke-linecap="round">
    <path d="M80 102 C220 102 250 150 405 150" stroke="#a78bfa" stroke-width="4" stroke-opacity=".7"/>
    <path d="M80 180 C225 180 265 180 405 180" stroke="#38bdf8" stroke-width="4" stroke-opacity=".75"/>
    <path d="M80 258 C220 258 250 210 405 210" stroke="#fb7185" stroke-width="4" stroke-opacity=".65"/>
    <path d="M795 180 H1080" stroke="url(#beam)" stroke-width="7" filter="url(#glow)"/>
  </g>

  <g font-family="Segoe UI, Inter, Arial, sans-serif">
    <g fill="#cbd5e1" font-size="18">
      <text x="82" y="88">ambiguous request</text>
      <text x="82" y="166">parallel agents</text>
      <text x="82" y="244">limited examples</text>
    </g>

    <g transform="translate(405 78)">
      <rect width="390" height="204" rx="28" fill="#0f172a" stroke="url(#beam)" stroke-width="2"/>
      <text x="195" y="70" text-anchor="middle" fill="#f8fafc" font-size="38" font-weight="700">ZeroToHero</text>
      <text x="195" y="111" text-anchor="middle" fill="#67e8f9" font-size="18" letter-spacing="2">BOUNDARIES · EVIDENCE</text>
      <text x="195" y="143" text-anchor="middle" fill="#6ee7b7" font-size="18" letter-spacing="2">GENERALIZATION · ROLLBACK</text>
      <path d="M92 169 H298" stroke="#334155"/>
      <text x="195" y="190" text-anchor="middle" fill="#94a3b8" font-size="14">no evidence, no done</text>
    </g>

    <g transform="translate(1080 180)">
      <circle r="48" fill="#052e2b" stroke="#34d399" stroke-width="3" filter="url(#glow)"/>
      <path d="M-20 1 L-6 16 L24 -18" fill="none" stroke="#6ee7b7" stroke-width="8" stroke-linecap="round" stroke-linejoin="round"/>
      <text x="0" y="78" text-anchor="middle" fill="#d1fae5" font-size="17" font-weight="600">VERIFIED</text>
    </g>
  </g>
</svg>
